<svg width="32" height="32" viewBox="0 0 32 32" fill="none" xmlns="http://www.w3.org/2000/svg">
<rect width="32" height="32" rx="16" fill="#98FAEC"/>
<path d="M15.9999 9.49756C14.4169 9.49762 12.8856 10.061 11.6799 11.0868C10.4742 12.1126 9.67294 13.534 9.41936 15.0965C9.16578 16.6591 9.47648 18.2609 10.2959 19.6154C11.1153 20.9698 12.3899 21.9885 13.8916 22.4892C14.2249 22.5476 14.3499 22.3476 14.3499 22.1726C14.3499 22.0142 14.3416 21.4892 14.3416 20.9309C12.6666 21.2392 12.2333 20.5226 12.0999 20.1476C11.952 19.7829 11.7175 19.4597 11.4166 19.2059C11.1833 19.0809 10.8499 18.7726 11.4083 18.7642C11.6215 18.7874 11.8259 18.8616 12.0044 18.9805C12.1828 19.0995 12.3299 19.2597 12.4333 19.4476C12.5245 19.6114 12.6471 19.7555 12.7941 19.8719C12.9411 19.9882 13.1096 20.0744 13.29 20.1255C13.4703 20.1766 13.659 20.1916 13.8452 20.1696C14.0314 20.1477 14.2114 20.0892 14.3749 19.9976C14.4038 19.6586 14.5548 19.3418 14.7999 19.1059C13.3166 18.9392 11.7666 18.3642 11.7666 15.8142C11.7572 15.1517 12.0017 14.5106 12.4499 14.0226C12.2461 13.4467 12.27 12.8148 12.5166 12.2559C12.5166 12.2559 13.0749 12.0809 14.3499 12.9392C15.4408 12.6392 16.5924 12.6392 17.6833 12.9392C18.9583 12.0726 19.5166 12.2559 19.5166 12.2559C19.7633 12.8148 19.7871 13.4467 19.5833 14.0226C20.0328 14.5098 20.2775 15.1514 20.2666 15.8142C20.2666 18.3726 18.7083 18.9392 17.2249 19.1059C17.384 19.2672 17.5066 19.4608 17.5842 19.6736C17.6619 19.8864 17.6928 20.1134 17.6749 20.3392C17.6749 21.2309 17.6666 21.9476 17.6666 22.1726C17.6666 22.3476 17.7916 22.5559 18.1249 22.4892C19.624 21.9845 20.895 20.9634 21.7109 19.6083C22.5268 18.2531 22.8345 16.6521 22.5792 15.091C22.3239 13.53 21.5221 12.1105 20.3169 11.0859C19.1118 10.0613 17.5817 9.49838 15.9999 9.49756Z" fill="#292F36"/>
</svg>
