<svg width="32" height="32" viewBox="0 0 32 32" fill="none" xmlns="http://www.w3.org/2000/svg">
<rect width="32" height="32" rx="16" fill="#98FAEC"/>
<path fill-rule="evenodd" clip-rule="evenodd" d="M14.4937 13.0122C15.116 12.6893 15.8243 12.5709 16.5178 12.6737C17.2253 12.7786 17.8802 13.1083 18.3859 13.614C18.8916 14.1197 19.2213 14.7746 19.3262 15.482C19.429 16.1756 19.3106 16.8839 18.9876 17.5062C18.6647 18.1286 18.1538 18.6332 17.5275 18.9484C16.9013 19.2637 16.1915 19.3734 15.4993 19.262C14.8071 19.1506 14.1676 18.8238 13.6719 18.328C13.1761 17.8322 12.8493 17.1928 12.7379 16.5006C12.6265 15.8083 12.7362 15.0986 13.0514 14.4724C13.3667 13.8461 13.8713 13.3352 14.4937 13.0122ZM16.3223 13.9926C15.9061 13.9309 15.4812 14.002 15.1078 14.1957C14.7344 14.3895 14.4316 14.6961 14.2424 15.0718C14.0533 15.4476 13.9875 15.8734 14.0543 16.2887C14.1211 16.7041 14.3172 17.0877 14.6147 17.3852C14.9121 17.6827 15.2958 17.8788 15.7112 17.9456C16.1265 18.0124 16.5523 17.9466 16.9281 17.7575C17.3038 17.5683 17.6104 17.2655 17.8041 16.8921C17.9979 16.5187 18.069 16.0937 18.0073 15.6776C17.9443 15.2532 17.7465 14.8602 17.4431 14.5568C17.1397 14.2534 16.7467 14.0556 16.3223 13.9926Z" fill="#292F36"/>
<path d="M19.6667 11.6665C19.2986 11.6665 19.0001 11.965 19.0001 12.3332C19.0001 12.7014 19.2986 12.9998 19.6667 12.9998H19.6734C20.0416 12.9998 20.3401 12.7014 20.3401 12.3332C20.3401 11.965 20.0416 11.6665 19.6734 11.6665H19.6667Z" fill="#292F36"/>
<path fill-rule="evenodd" clip-rule="evenodd" d="M8.66675 12.6665C8.66675 10.4574 10.4576 8.6665 12.6667 8.6665H19.3334C21.5426 8.6665 23.3334 10.4574 23.3334 12.6665V19.3332C23.3334 21.5423 21.5426 23.3332 19.3334 23.3332H12.6667C10.4576 23.3332 8.66675 21.5423 8.66675 19.3332V12.6665ZM12.6667 9.99984C11.194 9.99984 10.0001 11.1937 10.0001 12.6665V19.3332C10.0001 20.8059 11.194 21.9998 12.6667 21.9998H19.3334C20.8062 21.9998 22.0001 20.8059 22.0001 19.3332V12.6665C22.0001 11.1937 20.8062 9.99984 19.3334 9.99984H12.6667Z" fill="#292F36"/>
</svg>
