<svg width="18" height="14" viewBox="0 0 18 14" fill="none" xmlns="http://www.w3.org/2000/svg">
<path d="M6.66016 0L6.17188 0.0585938C6.17188 0.0585938 3.98193 0.297852 2.38281 1.58203H2.36328L2.34375 1.60156C1.98486 1.93115 1.82861 2.33643 1.58203 2.92969C1.33545 3.52295 1.07178 4.27979 0.839844 5.11719C0.375977 6.79443 0 8.82568 0 10.6836V10.8398L0.078125 10.9961C0.656738 12.0117 1.68457 12.6587 2.63672 13.1055C3.58887 13.5522 4.41162 13.7891 4.98047 13.8086L5.35156 13.8281L5.54688 13.4961L6.23047 12.2852C6.95557 12.4487 7.79053 12.5586 8.75 12.5586C9.70947 12.5586 10.5444 12.4487 11.2695 12.2852L11.9531 13.4961L12.1484 13.8281L12.5195 13.8086C13.0884 13.7891 13.9111 13.5522 14.8633 13.1055C15.8154 12.6587 16.8433 12.0117 17.4219 10.9961L17.5 10.8398V10.6836C17.5 8.82568 17.124 6.79443 16.6602 5.11719C16.4282 4.27979 16.1646 3.52295 15.918 2.92969C15.6714 2.33643 15.5151 1.93115 15.1562 1.60156L15.1367 1.58203H15.1172C13.5181 0.297852 11.3281 0.0585938 11.3281 0.0585938L10.8398 0L10.6641 0.449219C10.6641 0.449219 10.4834 0.905762 10.3711 1.42578C9.66309 1.33057 9.08447 1.30859 8.75 1.30859C8.41553 1.30859 7.83691 1.33057 7.12891 1.42578C7.0166 0.905762 6.83594 0.449219 6.83594 0.449219L6.66016 0ZM5.80078 1.42578C5.82764 1.51367 5.85449 1.58936 5.87891 1.66016C5.0708 1.86035 4.20898 2.16553 3.41797 2.65625L4.08203 3.71094C5.70312 2.70508 8.03223 2.55859 8.75 2.55859C9.46777 2.55859 11.7969 2.70508 13.418 3.71094L14.082 2.65625C13.291 2.16553 12.4292 1.86035 11.6211 1.66016C11.6455 1.58936 11.6724 1.51367 11.6992 1.42578C12.2827 1.54297 13.396 1.81152 14.3164 2.53906C14.3115 2.5415 14.5508 2.90283 14.7656 3.41797C14.9854 3.94775 15.2295 4.65332 15.4492 5.44922C15.8716 6.9751 16.2036 8.83301 16.2305 10.4688C15.8374 11.0693 15.1074 11.6113 14.3359 11.9727C13.6621 12.2876 13.1299 12.4023 12.8125 12.4609L12.5 11.9336C12.6855 11.8652 12.8687 11.7896 13.0273 11.7188C13.9893 11.2964 14.5117 10.8398 14.5117 10.8398L13.6914 9.90234C13.6914 9.90234 13.3398 10.2246 12.5195 10.5859C11.6992 10.9473 10.4468 11.3086 8.75 11.3086C7.05322 11.3086 5.80078 10.9473 4.98047 10.5859C4.16016 10.2246 3.80859 9.90234 3.80859 9.90234L2.98828 10.8398C2.98828 10.8398 3.51074 11.2964 4.47266 11.7188C4.63135 11.7896 4.81445 11.8652 5 11.9336L4.6875 12.4609C4.37012 12.4023 3.83789 12.2876 3.16406 11.9727C2.39258 11.6113 1.6626 11.0693 1.26953 10.4688C1.29639 8.83301 1.62842 6.9751 2.05078 5.44922C2.27051 4.65332 2.51465 3.94775 2.73438 3.41797C2.94922 2.90283 3.18848 2.5415 3.18359 2.53906C4.104 1.81152 5.21729 1.54297 5.80078 1.42578ZM6.5625 5.68359C6.0791 5.68359 5.65186 5.95947 5.39062 6.30859C5.12939 6.65771 5 7.0874 5 7.55859C5 8.02979 5.12939 8.45947 5.39062 8.80859C5.65186 9.15771 6.0791 9.43359 6.5625 9.43359C7.0459 9.43359 7.47314 9.15771 7.73438 8.80859C7.99561 8.45947 8.125 8.02979 8.125 7.55859C8.125 7.0874 7.99561 6.65771 7.73438 6.30859C7.47314 5.95947 7.0459 5.68359 6.5625 5.68359ZM10.9375 5.68359C10.4541 5.68359 10.0269 5.95947 9.76562 6.30859C9.50439 6.65771 9.375 7.0874 9.375 7.55859C9.375 8.02979 9.50439 8.45947 9.76562 8.80859C10.0269 9.15771 10.4541 9.43359 10.9375 9.43359C11.4209 9.43359 11.8481 9.15771 12.1094 8.80859C12.3706 8.45947 12.5 8.02979 12.5 7.55859C12.5 7.0874 12.3706 6.65771 12.1094 6.30859C11.8481 5.95947 11.4209 5.68359 10.9375 5.68359ZM6.5625 6.93359C6.59668 6.93359 6.64062 6.9458 6.71875 7.05078C6.79688 7.15576 6.875 7.33887 6.875 7.55859C6.875 7.77832 6.79688 7.96143 6.71875 8.06641C6.64062 8.17139 6.59668 8.18359 6.5625 8.18359C6.52832 8.18359 6.48438 8.17139 6.40625 8.06641C6.32812 7.96143 6.25 7.77832 6.25 7.55859C6.25 7.33887 6.32812 7.15576 6.40625 7.05078C6.48438 6.9458 6.52832 6.93359 6.5625 6.93359ZM10.9375 6.93359C10.9717 6.93359 11.0156 6.9458 11.0938 7.05078C11.1719 7.15576 11.25 7.33887 11.25 7.55859C11.25 7.77832 11.1719 7.96143 11.0938 8.06641C11.0156 8.17139 10.9717 8.18359 10.9375 8.18359C10.9033 8.18359 10.8594 8.17139 10.7812 8.06641C10.7031 7.96143 10.625 7.77832 10.625 7.55859C10.625 7.33887 10.7031 7.15576 10.7812 7.05078C10.8594 6.9458 10.9033 6.93359 10.9375 6.93359Z" fill="#12F7D6"/>
</svg>
