<svg width="17" height="17" viewBox="0 0 17 17" fill="none" xmlns="http://www.w3.org/2000/svg">
<path d="M7.66699 0C11.901 0.000176009 15.333 3.43292 15.333 7.66699C15.3329 9.42338 14.7405 11.0404 13.7471 12.333L16.707 15.293C17.0975 15.6835 17.0975 16.3165 16.707 16.707C16.3165 17.0975 15.6835 17.0975 15.293 16.707L12.333 13.7471C11.0404 14.7405 9.42338 15.3329 7.66699 15.333C3.43292 15.333 0.000176005 11.901 0 7.66699C0 3.43281 3.43281 0 7.66699 0ZM7.66699 2C4.53738 2 2 4.53738 2 7.66699C2.00018 10.7965 4.53749 13.333 7.66699 13.333C9.1949 13.3329 10.5806 12.7273 11.5996 11.7441C11.621 11.718 11.6436 11.6924 11.668 11.668C11.6925 11.6434 11.7178 11.6201 11.7441 11.5986C12.727 10.5796 13.3329 9.19465 13.333 7.66699C13.333 4.53749 10.7965 2.00018 7.66699 2Z" fill="#292F36"/>
</svg>
