<svg width="12" height="87" viewBox="0 0 12 87" fill="none" xmlns="http://www.w3.org/2000/svg">
<path d="M6.2735 1C6.2735 0.723858 6.04964 0.5 5.7735 0.5C5.49736 0.5 5.2735 0.723858 5.2735 1L6.2735 1ZM5.7735 83.8867L8.66025 81L5.7735 78.1132L2.88675 81L5.7735 83.8867ZM5.2735 3.85714C5.2735 4.13329 5.49736 4.35714 5.7735 4.35714C6.04964 4.35714 6.2735 4.13329 6.2735 3.85714H5.2735ZM6.2735 9.57143C6.2735 9.29528 6.04964 9.07143 5.7735 9.07143C5.49736 9.07143 5.2735 9.29528 5.2735 9.57143H6.2735ZM5.2735 15.2857C5.2735 15.5619 5.49736 15.7857 5.7735 15.7857C6.04964 15.7857 6.2735 15.5619 6.2735 15.2857H5.2735ZM6.2735 21C6.2735 20.7239 6.04964 20.5 5.7735 20.5C5.49736 20.5 5.2735 20.7239 5.2735 21H6.2735ZM5.2735 26.7143C5.2735 26.9904 5.49736 27.2143 5.7735 27.2143C6.04964 27.2143 6.2735 26.9904 6.2735 26.7143H5.2735ZM6.2735 32.4286C6.2735 32.1524 6.04964 31.9286 5.7735 31.9286C5.49736 31.9286 5.2735 32.1524 5.2735 32.4286H6.2735ZM5.2735 38.1429C5.2735 38.419 5.49736 38.6429 5.7735 38.6429C6.04964 38.6429 6.2735 38.419 6.2735 38.1429H5.2735ZM6.2735 43.8571C6.2735 43.581 6.04964 43.3571 5.7735 43.3571C5.49736 43.3571 5.2735 43.581 5.2735 43.8571H6.2735ZM5.2735 49.5714C5.2735 49.8476 5.49736 50.0714 5.7735 50.0714C6.04964 50.0714 6.2735 49.8476 6.2735 49.5714H5.2735ZM6.2735 55.2857C6.2735 55.0096 6.04964 54.7857 5.7735 54.7857C5.49736 54.7857 5.2735 55.0096 5.2735 55.2857H6.2735ZM5.2735 61C5.2735 61.2761 5.49736 61.5 5.7735 61.5C6.04964 61.5 6.2735 61.2761 6.2735 61H5.2735ZM6.2735 66.7143C6.2735 66.4381 6.04964 66.2143 5.7735 66.2143C5.49736 66.2143 5.2735 66.4381 5.2735 66.7143H6.2735ZM5.2735 72.4286C5.2735 72.7047 5.49736 72.9286 5.7735 72.9286C6.04964 72.9286 6.2735 72.7047 6.2735 72.4286H5.2735ZM6.2735 78.1429C6.2735 77.8667 6.04964 77.6429 5.7735 77.6429C5.49736 77.6429 5.2735 77.8667 5.2735 78.1429H6.2735ZM5.2735 1V3.85714H6.2735V1L5.2735 1ZM5.2735 9.57143L5.2735 15.2857H6.2735L6.2735 9.57143H5.2735ZM5.2735 21L5.2735 26.7143H6.2735L6.2735 21H5.2735ZM5.2735 32.4286V38.1429H6.2735V32.4286H5.2735ZM5.2735 43.8571L5.2735 49.5714H6.2735L6.2735 43.8571H5.2735ZM5.2735 55.2857L5.2735 61H6.2735L6.2735 55.2857H5.2735ZM5.2735 66.7143V72.4286H6.2735V66.7143H5.2735ZM5.2735 78.1429L5.2735 81H6.2735L6.2735 78.1429H5.2735ZM6.7735 1C6.7735 0.447715 6.32578 5.96046e-08 5.7735 5.96046e-08C5.22121 5.96046e-08 4.7735 0.447715 4.7735 1L6.7735 1ZM5.7735 86.7735L11.547 81L5.7735 75.2265L-3.94741e-06 81L5.7735 86.7735ZM4.7735 3.85714C4.7735 4.40943 5.22121 4.85714 5.7735 4.85714C6.32578 4.85714 6.7735 4.40943 6.7735 3.85714H4.7735ZM6.7735 9.57143C6.7735 9.01914 6.32578 8.57143 5.7735 8.57143C5.22121 8.57143 4.7735 9.01914 4.7735 9.57143H6.7735ZM4.7735 15.2857C4.7735 15.838 5.22121 16.2857 5.7735 16.2857C6.32578 16.2857 6.7735 15.838 6.7735 15.2857H4.7735ZM6.7735 21C6.7735 20.4477 6.32578 20 5.7735 20C5.22121 20 4.7735 20.4477 4.7735 21H6.7735ZM4.7735 26.7143C4.7735 27.2666 5.22121 27.7143 5.7735 27.7143C6.32578 27.7143 6.7735 27.2666 6.7735 26.7143H4.7735ZM6.7735 32.4286C6.7735 31.8763 6.32578 31.4286 5.7735 31.4286C5.22121 31.4286 4.7735 31.8763 4.7735 32.4286H6.7735ZM4.7735 38.1429C4.7735 38.6951 5.22121 39.1429 5.7735 39.1429C6.32578 39.1429 6.7735 38.6951 6.7735 38.1429H4.7735ZM6.7735 43.8571C6.7735 43.3049 6.32578 42.8571 5.7735 42.8571C5.22121 42.8571 4.7735 43.3049 4.7735 43.8571H6.7735ZM4.7735 49.5714C4.7735 50.1237 5.22121 50.5714 5.7735 50.5714C6.32578 50.5714 6.7735 50.1237 6.7735 49.5714H4.7735ZM6.7735 55.2857C6.7735 54.7334 6.32578 54.2857 5.7735 54.2857C5.22121 54.2857 4.7735 54.7334 4.7735 55.2857H6.7735ZM4.7735 61C4.7735 61.5523 5.22121 62 5.7735 62C6.32578 62 6.7735 61.5523 6.7735 61H4.7735ZM6.7735 66.7143C6.7735 66.162 6.32578 65.7143 5.7735 65.7143C5.22121 65.7143 4.7735 66.162 4.7735 66.7143H6.7735ZM4.7735 72.4286C4.7735 72.9809 5.22121 73.4286 5.7735 73.4286C6.32578 73.4286 6.7735 72.9809 6.7735 72.4286H4.7735ZM6.7735 78.1429C6.7735 77.5906 6.32578 77.1429 5.7735 77.1429C5.22121 77.1429 4.7735 77.5906 4.7735 78.1429H6.7735ZM4.7735 1V3.85714H6.7735V1L4.7735 1ZM4.7735 9.57143L4.7735 15.2857H6.7735L6.7735 9.57143H4.7735ZM4.7735 21L4.7735 26.7143H6.7735L6.7735 21H4.7735ZM4.7735 32.4286L4.7735 38.1429H6.7735L6.7735 32.4286H4.7735ZM4.7735 43.8571L4.7735 49.5714H6.7735L6.7735 43.8571H4.7735ZM4.7735 55.2857L4.7735 61H6.7735L6.7735 55.2857H4.7735ZM4.7735 66.7143V72.4286H6.7735V66.7143H4.7735ZM4.7735 78.1429L4.7735 81H6.7735L6.7735 78.1429H4.7735Z" fill="white"/>
</svg>
